# AST/ASF file generated using VICON BodyLanguage
# -----------------------------------------------
:version 1.10
:name VICON
:units
  mass 1.0
  length 0.45
  angle deg
:documentation
   .ast/.asf automatically generated from VICON data using
   VICON BodyBuilder and BodyLanguage model FoxedUp or BRILLIANT.MOD
:root
   order TX TY TZ RX RY RZ
   axis XYZ
   position 0 0 0  
   orientation 0 0 0 
:bonedata
  begin
     id 1 
     name lhipjoint
     direction 0.630082 -0.636569 0.44472 
     length 2.82754 
     axis 0 0 0  XYZ
  end
  begin
     id 2 
     name lfemur
     direction 0.34202 -0.939693 0  
     length 7.26371  
     axis 0 0 20  XYZ
    dof rx ry rz
    limits (-160.0 20.0)
           (-70.0 70.0)
           (-60.0 70.0)
  end
  begin
     id 3 
     name ltibia
     direction 0.34202 -0.939693 0   
     length 7.88616   
     axis 0 0 20   XYZ
    dof rx
    limits (-10.0 170.0)
  end
  begin
     id 4 
     name lfoot
     direction 0.0603448 -0.165796 0.984312   
     length 1.77861   
     axis -90 7.62852e-016 20   XYZ
    dof rx rz
    limits (-45.0 90.0)
           (-70.0 20.0)
  end
  begin
     id 5 
     name ltoes
     direction 1.53577e-011 -4.21876e-011 1   
     length 0.902235   
     axis -90 7.62852e-016 20   XYZ
    dof rx
    limits (-90.0 20.0)
  end
  begin
     id 6 
     name rhipjoint
     direction -0.656778 -0.61817 0.431866   
     length 2.9117  
     axis 0 0 0  XYZ 
  end
  begin
     id 7 
     name rfemur
     direction -0.34202 -0.939693 0   
     length 6.81603   
     axis 0 0 -20   XYZ
    dof rx ry rz
    limits (-160.0 20.0)
           (-70.0 70.0)
           (-70.0 60.0)
  end
  begin
     id 8 
     name rtibia
     direction -0.34202 -0.939693 0   
     length 8.05997   
     axis 0 0 -20   XYZ
    dof rx
    limits (-10.0 170.0)
 end
 begin
     id 9 
     name rfoot
     direction -0.0862404 -0.236944 0.967688   
     length 1.84899  
     axis -90 -7.62852e-016 -20   XYZ
    dof rx rz
    limits (-45.0 90.0)
           (-20.0 70.0)
  end
  begin
     id 10 
     name rtoes
     direction -1.53561e-011 -4.21798e-011 1   
     length 0.931579   
     axis -90 -7.62852e-016 -20   XYZ
    dof rx
    limits (-90.0 20.0)
  end
  begin
     id 11 
     name lowerback
     direction -0.0110203 0.991769 -0.127564   
     length 2.05686   
     axis 0 0 0   XYZ
    dof rx ry rz
    limits (-20.0 45.0)
           (-30.0 30.0)
           (-30.0 30.0)
  end
  begin
     id 12 
     name upperback
     direction 0.0109719 0.99993 -0.00432479   
     length 2.06234   
     axis 0 0 0   XYZ
    dof rx ry rz
    limits (-20.0 45.0)
           (-30.0 30.0)
           (-30.0 30.0)
  end
  begin
     id 13 
     name thorax
     direction 0.0173308 0.998351 0.0547306   
     length 2.09856   
     axis 0 0 0   XYZ
    dof rx ry rz
    limits (-20.0 45.0)
           (-30.0 30.0)
           (-30.0 30.0)
  end
  begin
     id 14 
     name lowerneck
     direction -0.0311736 0.989033 0.144366   
     length 1.98151   
     axis 0 0 0   XYZ
    dof rx ry rz
    limits (-20.0 45.0)
           (-30.0 30.0)
           (-30.0 30.0)
  end
  begin
     id 15 
     name upperneck
     direction 0.0421057 0.975772 -0.214698   
     length 2.01457   
     axis 0 0 0   XYZ
    dof rx ry rz
    limits (-20.0 45.0)
           (-30.0 30.0)
           (-30.0 30.0)
  end
  begin
     id 16
     name head
     direction 0.0136911 0.995958 -0.0887718  
     length 2.03562  
     axis 0 0 0   XYZ
    dof rx ry rz
    limits (-20.0 45.0)
           (-30.0 30.0)
           (-30.0 30.0)
  end
  begin
     id 17 
     name lclavicle
     direction 0.915335 0.396201 0.0720134  
     length 4.16217  
     axis 0 0 0   XYZ
    dof ry rz
    limits (-20.0 10.0)
           (0.0 20.0)
  end
  begin
     id 18 
     name lhumerus
     direction 1 -4.48965e-011 6.383e-018   
     length 4.93042   
     axis -180 -30 -90   XYZ
    dof rx ry rz
    limits (-60.0 90.0)
           (-90.0 90.0)
           (-90.0 90.0)
  end
  begin
     id 19
     name lradius
     direction 1 -4.48972e-011 8.8689e-027   
     length 3.68177   
     axis -180 -30 -90   XYZ
    dof rx
    limits (-10.0 170.0)
  end
  begin
     id 20
     name lwrist
     direction 1 -4.48953e-011 1.17971e-026   
     length 1.84089   
     axis -7.69454e-015 90 90   XYZ
    dof ry
    limits (-180.0 0.0)
 end
  begin
     id 21 
     name lhand
     direction 1 -4.49027e-011 2.35802e-026   
     length 0.721479   
     axis -1.50533e-014 90 90   XYZ
    dof rx rz
    limits (-90.0 90.0)
           (-45.0 45.0)
  end
  begin
     id 22 
     name lfingers
     direction 1 -4.48915e-011 4.72027e-026   
     length 0.581675   
     axis -3.01059e-014 90 90   XYZ
    dof rx
    limits (0.0 90.0)
  end
  begin
     id 23
     name lthumb
     direction 0.707107 -6.34948e-011 0.707107   
     length 0.835172   
     axis -90 45 -5.12164e-014   XYZ
    dof rx rz
    limits (-45.0 45.0)
           (-45.0 45.0)
  end
  begin
     id 24 
     name rclavicle
     direction -0.882781 0.469197 0.0234974   
     length 3.95647  
     axis 0 0 0   XYZ 
    dof ry rz
    limits (-10.0 20.0)
           (-20.0 0.0)
  end
  begin
     id 25 
     name rhumerus
     direction -1 -4.48965e-011 -1.54906e-018  
     length 5.07905   
     axis -180 30 90   XYZ
    dof rx ry rz
    limits (-90.0 60.0)
           (-90.0 90.0)
           (-90.0 90.0)
  end
  begin
     id 26 
     name rradius
     direction -1 -4.48972e-011 5.47489e-027   
     length 3.54394   
     axis -180 30 90   XYZ
    dof rx
    limits (-10.0 170.0)
  end
  begin
     id 27 
     name rwrist
     direction -1 -4.48955e-011 1.17969e-026   
     length 1.77197   
     axis -7.69454e-015 -90 -90   XYZ
    dof ry
    limits (-180.0 0.0)
  end
  begin
     id 28
     name rhand
     direction -1 -4.48982e-011 2.35888e-026   
     length 0.681156   
     axis -1.50533e-014 -90 -90   XYZ
    dof rx rz
    limits (-90.0 90.0)
           (-45.0 45.0)
  end
  begin
     id 29
     name rfingers
     direction -1 -4.48955e-011 4.71877e-026   
     length 0.549165   
     axis -3.01059e-014 -90 -90   XYZ
    dof rx
    limits (0.0 90.0)
  end
  begin
     id 30
     name rthumb
     direction -0.707107 -6.3491e-011 0.707107   
     length 0.788495   
     axis -90 -45 5.12164e-014   XYZ
    dof rx rz
    limits (-45.0 45.0)
           (-45.0 45.0)
  end
:hierarchy
  begin
    root lhipjoint rhipjoint lowerback
    lhipjoint lfemur
    lfemur ltibia
    ltibia lfoot
    lfoot ltoes
    rhipjoint rfemur
    rfemur rtibia
    rtibia rfoot
    rfoot rtoes
    lowerback upperback
    upperback thorax
    thorax lowerneck lclavicle rclavicle
    lowerneck upperneck
    upperneck head
    lclavicle lhumerus
    lhumerus lradius
    lradius lwrist
    lwrist lhand lthumb
    lhand lfingers
    rclavicle rhumerus
    rhumerus rradius
    rradius rwrist
    rwrist rhand rthumb
    rhand rfingers
  end

#!OML:ASF H:\Bending\Project 1\Capture day 1\Session 1\Subject.ASF
:FULLY-SPECIFIED
:DEGREES
330
root -8.42818 18.1172 -16.3336 107.336 91.3466 97.6979
lowerback 5.904 0.153918 -0.447449
upperback -2.15549 0.299764 2.1291
thorax -5.56982 0.212363 2.43471
lowerneck -26.8751 -3.15119 -4.4897
upperneck 31.6024 -2.76662 1.55543
head 15.8102 -1.33136 0.886728
rclavicle 3.37934e-015 2.10712e-014
rhumerus 27.8017 7.59487 -87.127
rradius 36.3093
rwrist 6.99528
rhand -24.0919 -40.3987
rfingers 7.12502
rthumb 2.3886 -70.3651
lclavicle 3.37934e-015 2.10712e-014
lhumerus 29.0974 -13.0923 85.4997
lradius 32.1239
lwrist 47.2996
lhand -26.3349 13.5
lfingers 7.12502
lthumb 0.222256 43.4796
rfemur 0.89131 -6.97585 17.1255
rtibia 0
rfoot -9.66935 -12.4451
rtoes 2.72726
lfemur -11.8554 -15.8676 -12.261
ltibia 22.4081
lfoot -25.0424 20.545
ltoes -29.2189
331
root -8.42898 18.1184 -16.3304 106.475 91.3719 96.8599
lowerback 5.88902 0.133598 -0.444937
upperback -2.15623 0.273278 2.13763
thorax -5.56087 0.199326 2.44497
lowerneck -26.8309 -3.10306 -4.40616
upperneck 31.6742 -2.72235 1.52913
head 15.8305 -1.30532 0.871948
rclavicle -1.63997e-015 9.93923e-015
rhumerus 27.7487 7.6746 -87.1528
rradius 36.36
rwrist 7.04325
rhand -24.1735 -40.543
rfingers 7.12502
rthumb 2.30979 -70.5103
lclavicle -1.63997e-015 9.93923e-015
lhumerus 28.8694 -13.0634 85.2964
lradius 32.5095
lwrist 48.0001
lhand -25.8964 13.3679
lfingers 7.12502
lthumb 0.6458 43.3466
rfemur 0.913637 -6.985 17.1706
rtibia -4.77083e-015
rfoot -9.59992 -12.4568
rtoes 2.56871
lfemur -11.8296 -15.8094 -12.2197
ltibia 22.3963
lfoot -25.0719 20.3989
ltoes -28.893
332
root -8.43035 18.1184 -16.3263 105.616 91.4088 96.0323
lowerback 5.88441 0.102767 -0.418678
upperback -2.16579 0.234959 2.14578
thorax -5.5664 0.179796 2.4428
lowerneck -26.7814 -3.05572 -4.3474
upperneck 31.7563 -2.67233 1.51597
head 15.8552 -1.27785 0.868378
rclavicle -3.97569e-016 -2.38542e-015
rhumerus 27.6736 7.84932 -87.1236
rradius 36.4337
rwrist 7.02702
rhand -24.27 -40.7165
rfingers 7.12502
rthumb 2.21663 -70.6848
lclavicle -3.97569e-016 -2.38542e-015
lhumerus 28.5772 -13.0857 84.9889
lradius 32.9476
lwrist 48.7724
lhand -25.3559 13.1873
lfingers 7.12502
lthumb 1.16783 43.1638
rfemur 0.945707 -6.99063 17.2338
rtibia -1.43125e-014
rfoot -9.54487 -12.4819
rtoes 2.26041
lfemur -11.8003 -15.7388 -12.1682
ltibia 22.393
lfoot -25.1009 20.2606
ltoes -28.5914
333
root -8.43231 18.117 -16.3222 104.776 91.4437 95.2341
lowerback 5.89446 0.0658942 -0.370056
upperback -2.1828 0.190471 2.15033
thorax -5.58776 0.15653 2.42504
lowerneck -26.7282 -3.01598 -4.31078
upperneck 31.8434 -2.62167 1.49927
head 15.8821 -1.25339 0.867242
rclavicle -3.97569e-016 5.1684e-015
rhumerus 27.5711 8.08425 -87.045
rradius 36.5473
rwrist 6.93813
rhand -24.3848 -40.9
rfingers 7.12502
rthumb 2.10569 -70.8694
lclavicle -3.97569e-016 5.1684e-015
lhumerus 28.2017 -13.209 84.5683
lradius 33.4797
lwrist 49.5778
lhand -24.8826 13.0225
lfingers 7.12502
lthumb 1.62493 42.9961
rfemur 0.989596 -6.99676 17.2937
rtibia 1.11319e-014
rfoot -9.5112 -12.5125
rtoes 1.92957
lfemur -11.7673 -15.6522 -12.1253
ltibia 22.3985
lfoot -25.0966 20.1497
ltoes -28.4166
334
root -8.43469 18.1148 -16.319 104.004 91.4635 94.5135
lowerback 5.91694 0.0261858 -0.307038
upperback -2.20318 0.143348 2.15109
thorax -5.61963 0.131454 2.3956
lowerneck -26.6768 -2.98737 -4.29628
upperneck 31.9315 -2.5724 1.47055
head 15.9103 -1.23419 0.864331
rclavicle -3.47873e-016 1.63003e-014
rhumerus 27.443 8.33233 -86.9389
rradius 36.704
rwrist 6.78618
rhand -24.5148 -41.0686
rfingers 7.12502
rthumb 1.98017 -71.0391
lclavicle -3.47873e-016 1.63003e-014
lhumerus 27.7234 -13.4418 84.0522
lradius 34.1609
lwrist 50.3587
lhand -24.6413 12.9141
lfingers 7.12502
lthumb 1.85796 42.8858
rfemur 1.04396 -7.00581 17.3294
rtibia -1.74931e-014
rfoot -9.50265 -12.5398
rtoes 1.71984
lfemur -11.7295 -15.555 -12.1074
ltibia 22.4084
lfoot -25.0466 20.0749
ltoes -28.4042
335
root -8.43721 18.1125 -16.3176 103.494 91.4627 94.0604
lowerback 5.94444 -0.0146768 -0.238342
upperback -2.22204 0.0950456 2.14933
thorax -5.65281 0.105503 2.36054
lowerneck -26.6338 -2.96946 -4.30777
upperneck 32.0196 -2.5242 1.43569
head 15.941 -1.21976 0.862841
rclavicle 2.28602e-015 1.98785e-014
rhumerus 27.2858 8.55841 -86.8274
rradius 36.9113
rwrist 6.57884
rhand -24.6539 -41.1993
rfingers 7.12502
rthumb 1.84579 -71.171
lclavicle 2.28602e-015 1.98785e-014
lhumerus 27.1221 -13.745 83.477
lradius 35.0468
lwrist 51.0505
lhand -24.7073 12.8676
lfingers 7.12502
lthumb 1.79421 42.8398
rfemur 1.10336 -7.01412 17.3309
rtibia -1.11319e-014
rfoot -9.51585 -12.5589
rtoes 1.71497
lfemur -11.6851 -15.4576 -12.1214
ltibia 22.4162
lfoot -24.9596 20.0361
ltoes -28.5387
336
root -8.43958 18.1112 -16.3177 103.593 91.4459 94.2162
lowerback 5.9684 -0.0549496 -0.178925
upperback -2.23632 0.046996 2.15263
thorax -5.67933 0.0800247 2.33596
lowerneck -26.6017 -2.95922 -4.35345
upperneck 32.1103 -2.47366 1.40797
head 15.9764 -1.2077 0.870646
rclavicle 8.94531e-016 2.18663e-014
rhumerus 27.0774 8.76263 -86.7046
rradius 37.2056
rwrist 6.30055
rhand -24.7961 -41.2853
rfingers 7.12502
rthumb 1.70847 -71.2582
lclavicle 8.94531e-016 2.18663e-014
lhumerus 26.3745 -14.0438 82.8967
lradius 36.1795
lwrist 51.5956
lhand -25.013 12.855
lfingers 7.12502
lthumb 1.49905 42.8295
rfemur 1.15957 -7.01172 17.3039
rtibia 1.74931e-014
rfoot -9.53917 -12.5714
rtoes 1.89652
lfemur -11.6329 -15.3689 -12.1606
ltibia 22.4163
lfoot -24.8582 20.0252
ltoes -28.7736
337
root -8.4416 18.1113 -16.3187 104.675 91.4256 95.3492
lowerback 5.98173 -0.0921345 -0.131435
upperback -2.24612 0.00224291 2.16119
thorax -5.69534 0.0566156 2.32316
lowerneck -26.5766 -2.95268 -4.43185
upperneck 32.208 -2.42129 1.4025
head 16.0179 -1.19565 0.894058
rclavicle 3.97569e-016 -2.66371e-014
rhumerus 26.769 8.96865 -86.5471
rradius 37.6647
rwrist 5.91725
rhand -24.9358 -41.3321
rfingers 7.12502
rthumb 1.57359 -71.3061
lclavicle 3.97569e-016 -2.66371e-014
lhumerus 25.4592 -14.2765 82.3477
lradius 37.5783
lwrist 51.967
lhand -25.3594 12.8314
lfingers 7.12502
lthumb 1.16448 42.8079
rfemur 1.20374 -6.98698 17.2666
rtibia -6.36111e-015
rfoot -9.55484 -12.5849
rtoes 2.14661
lfemur -11.5746 -15.2894 -12.2079
ltibia 22.4076
lfoot -24.7649 20.0289
ltoes -29.0606
338
root -8.44315 18.1128 -16.3196 106.865 91.4161 97.5801
lowerback 5.98149 -0.121228 -0.105272
upperback -2.25496 -0.0330186 2.17899
thorax -5.70306 0.0388339 2.3309
lowerneck -26.5467 -2.94848 -4.5332
upperneck 32.3168 -2.36853 1.41627
head 16.0645 -1.18333 0.930035
rclavicle -4.22417e-015 1.35174e-014
rhumerus 26.2925 9.21565 -86.3049
rradius 38.399
rwrist 5.39763
rhand -25.0681 -41.3592
rfingers 7.12502
rthumb 1.44579 -71.334
lclavicle -4.22417e-015 1.35174e-014
lhumerus 24.3576 -14.4202 81.8581
lradius 39.2373
lwrist 52.1716
lhand -25.4985 12.7473
lfingers 7.12502
lthumb 1.03007 42.7246
rfemur 1.22968 -6.93408 17.24
rtibia -1.90833e-014
rfoot -9.54527 -12.6094
rtoes 2.30381
lfemur -11.5161 -15.2107 -12.2447
ltibia 22.3943
lfoot -24.691 20.0305
ltoes -29.362
